<svg version="1.1" xmlns="http://www.w3.org/2000/svg" fill-rule="evenodd" clip-rule="evenodd" height="923" width="1024" viewBox="0 0 1136 1024"><path d="M1079.234129 193.300702h-76.557828v-57.496491C1002.676301 70.370705 948.14213 0 828.386939 0h-519.968263c-119.742691 0-174.289362 70.370705-174.289363 135.766713v57.496491H57.533988c-38.747635 0-57.496491 18.748856-57.49649 57.496491v625.911797c0 68.133341 33.160476 78.220226 52.934269 78.220226h73.633006v20.711236c0 2.087373 0.362478 20.773732 14.261629 34.647885 6.249619 6.337113 17.598926 13.749161 36.447776 13.749161h782.264754c18.748856 0 30.185658-7.499542 36.447775-13.749161 13.849155-13.874153 14.24913-32.498016 14.249131-34.622887v-20.623741h73.483015c19.773793 0 52.92177-10.16188 52.92177-78.232725V250.822191c0-38.747635-18.748856-57.496491-57.496491-57.496491z m-917.444004-57.496491c0-53.884211 45.359731-108.168398 146.666048-108.168398h519.968264c101.243821 0 146.666048 54.321684 146.666048 108.168398v700.782228H161.690131z m947.442173 740.929777c0 33.58545-8.536979 50.609411-25.360952 50.609411h-101.243821v48.209558c-0.137492 6.337113-2.637339 20.823729-23.011095 20.823729H177.189185c-20.373756 0-22.898602-14.549112-23.023595-20.686237v-48.34705h-101.24382c-16.798975 0-25.360952-17.023961-25.360952-50.609411V250.822191c0-25.748428 8.749466-29.910674 29.935673-29.910674h79.220164v640.635898H1000.063961V220.911517h79.232664c21.086213 0 29.885676 4.162246 29.885676 29.910674z m0 0" fill="#FFFFFF"></path><path d="M161.640134 135.779213c0-53.871712 45.359731-108.168398 146.666048-108.168398h520.055759c101.243821 0 146.666048 54.334184 146.666048 108.168398v700.819725H161.640134z m0 0" fill="#DD4D41"></path><path d="M1109.119805 876.733988c0 33.58545-8.536979 50.609411-25.360952 50.609411h-101.243821v48.209558c-0.137492 6.337113-2.637339 20.823729-23.011095 20.823729H177.189185c-20.373756 0-22.898602-14.549112-23.023595-20.686237v-48.34705h-101.24382c-16.798975 0-25.360952-17.023961-25.360952-50.609411V250.822191c0-25.748428 8.749466-29.910674 29.935673-29.910674h79.220164v640.635898H1000.063961V220.911517h79.232664c21.086213 0 29.885676 4.162246 29.885676 29.910674z m0 0" fill="#DD4D41"></path><path d="M782.039768 235.560623L491.320012 526.280378l-136.241684-136.241684-82.057492 82.057492 218.224181 220.299054 372.477266-372.477266z m0 0" fill="#FFFFFF"></path></svg>