<?xml version="1.0"?>
<svg width="1136" height="1024" xmlns="http://www.w3.org/2000/svg" xmlns:svg="http://www.w3.org/2000/svg" clip-rule="evenodd" fill-rule="evenodd" version="1.1">
 <g class="layer">
  <title>Layer 1</title>
  <path d="m1079.23,193.3l-76.55,0l0,-57.5c0,-65.43 -54.54,-135.8 -174.29,-135.8l-519.97,0c-119.74,0 -174.29,70.37 -174.29,135.77l0,57.49l-76.6,0c-38.74,0 -57.49,18.75 -57.49,57.5l0,625.91c0,68.13 33.16,78.22 52.93,78.22l73.63,0l0,20.71c0,2.09 0.37,20.78 14.27,34.65c6.25,6.34 17.6,13.75 36.44,13.75l782.27,0c18.75,0 30.18,-7.5 36.45,-13.75c13.85,-13.87 14.25,-32.5 14.25,-34.62l0,-20.63l73.48,0c19.77,0 52.92,-10.16 52.92,-78.23l0,-625.95c0,-38.75 -18.75,-57.49 -57.5,-57.49l0.05,-0.03zm-917.44,-57.5c0,-53.88 45.36,-108.16 146.67,-108.16l519.96,0c101.25,0 146.67,54.32 146.67,108.16l0,700.79l-813.4,0l0.1,-700.79zm947.44,740.93c0,33.59 -8.53,50.61 -25.36,50.61l-101.24,0l0,48.21c-0.14,6.34 -2.64,20.83 -23.01,20.83l-782.43,0c-20.37,0 -22.9,-14.55 -23.02,-20.69l0,-48.35l-101.25,0c-16.8,0 -25.36,-17.02 -25.36,-50.61l0,-625.91c0,-25.75 8.75,-29.91 29.94,-29.91l79.22,0l0,640.64l863.34,0l0,-640.64l79.24,0c21.08,0 29.88,4.16 29.88,29.91l0.05,625.91zm0,0" fill="#FFFFFF" id="svg_1"/>
  <path d="m161.64,135.78c0,-53.87 45.36,-108.17 146.67,-108.17l520.05,0c101.25,0 146.67,54.33 146.67,108.17l0,700.82l-813.39,0l0,-700.82zm0,0" fill="#007fff" id="svg_2"/>
  <path d="m1109.12,876.73c0,33.59 -8.54,50.61 -25.36,50.61l-101.24,0l0,48.21c-0.14,6.34 -2.64,20.83 -23.02,20.83l-782.31,0c-20.37,0 -22.9,-14.55 -23.02,-20.69l0,-48.35l-101.25,0c-16.8,0 -25.36,-17.02 -25.36,-50.61l0,-625.91c0,-25.75 8.75,-29.91 29.94,-29.91l79.22,0l0,640.64l863.34,0l0,-640.64l79.24,0c21.08,0 29.88,4.16 29.88,29.91l-0.06,625.91zm0,0" fill="#007fff" id="svg_3" transform="matrix(1, 0, 0, 1, 0, 0)"/>
  <path d="m782.04,235.56l-290.72,290.72l-136.24,-136.24l-82.06,82.06l218.23,220.3l372.47,-372.48l-81.68,-84.36zm0,0" fill="#FFFFFF" id="svg_4"/>
 </g>

</svg>